<svg width="27" height="37" viewBox="0 0 27 37" fill="none" xmlns="http://www.w3.org/2000/svg">
<g clip-path="url(#clip0_7090_790)">
<path fill-rule="evenodd" clip-rule="evenodd" d="M16.2661 15.6059L13.6743 13.0733L11.0826 15.6059C9.66327 16.9929 9.66327 19.2642 11.0826 20.6713L13.6743 23.2039L16.2661 20.6713C17.6854 19.2642 17.6854 16.9929 16.2661 15.6059ZM13.6538 0.12854L4.47973 9.09336C1.94966 11.5657 0.674347 14.8421 0.674347 18.0984C0.674347 21.3547 1.94966 24.6311 4.47973 27.1034L7.0715 29.6361L12.543 24.2893L9.95125 21.7567C8.92276 20.7517 8.40852 19.425 8.40852 18.0984C8.40852 16.7718 8.92276 15.4451 9.95125 14.4401L19.1459 5.47527L13.6538 0.12854ZM13.6743 36.1285L22.8484 27.1637C25.399 24.6713 26.6743 21.3949 26.6743 18.1386C26.6743 14.8823 25.399 11.6059 22.869 9.13356L20.2772 6.6009L14.8057 11.9476L17.3974 14.4803C18.4259 15.4853 18.9402 16.812 18.9402 18.1386C18.9402 19.4652 18.4259 20.7919 17.3974 21.7969L8.2234 30.7617L13.6743 36.1285Z" fill="white"/>
</g>
<defs>
<clipPath id="clip0_7090_790">
<rect width="26" height="36" fill="white" transform="translate(0.674316 0.128418)"/>
</clipPath>
</defs>
</svg>
