<svg width="27" height="36" viewBox="0 0 27 36" fill="none" xmlns="http://www.w3.org/2000/svg">
<g clip-path="url(#clip0_80_511)">
<path fill-rule="evenodd" clip-rule="evenodd" d="M16.2661 15.4774L13.6743 12.9447L11.0825 15.4774C9.66324 16.8643 9.66324 19.1357 11.0825 20.5427L13.6743 23.0754L16.2661 20.5427C17.6854 19.1357 17.6854 16.8643 16.2661 15.4774ZM13.6537 0L4.4797 8.96482C1.94963 11.4372 0.674317 14.7136 0.674317 17.9698C0.674317 21.2261 1.94963 24.5025 4.4797 26.9749L7.07147 29.5075L12.543 24.1608L9.95122 21.6281C8.92273 20.6231 8.40849 19.2965 8.40849 17.9698C8.40849 16.6432 8.92273 15.3166 9.95122 14.3116L19.1458 5.34673L13.6537 0ZM13.6743 36L22.8484 27.0352C25.399 24.5427 26.6743 21.2663 26.6743 18.01C26.6743 14.7538 25.399 11.4774 22.8689 9.00502L20.2772 6.47236L14.8056 11.8191L17.3974 14.3518C18.4259 15.3568 18.9401 16.6834 18.9401 18.01C18.9401 19.3367 18.4259 20.6633 17.3974 21.6683L8.22337 30.6332L13.6743 36Z" fill="#0C1228"/>
</g>
<defs>
<clipPath id="clip0_80_511">
<rect width="26" height="36" fill="white" transform="translate(0.674316)"/>
</clipPath>
</defs>
</svg>
